<?xml version="1.0" encoding="UTF-8"?>
<mxfile host="app.diagrams.net" modified="2025-08-16T09:10:00.000Z" agent="5.0 (Windows NT 10.0; Win64; x64)" version="21.0.0" etag="common-utils-flow" type="device">
  <diagram name="Common Utils Module" id="common-utils-overview">
    <mxGraphModel dx="1434" dy="798" grid="1" gridSize="10" guides="1" tooltips="1" connect="1" arrows="1" fold="1" page="1" pageScale="1" pageWidth="1200" pageHeight="800" math="0" shadow="0">
      <root>
        <mxCell id="0" />
        <mxCell id="1" parent="0" />
        
        <!-- Title -->
        <mxCell id="title" value="Common Utils Module (lib/common-utils.js)" style="text;html=1;align=center;verticalAlign=middle;resizable=0;points=[];autosize=1;strokeColor=none;fillColor=none;fontSize=18;fontStyle=1" vertex="1" parent="1">
          <mxGeometry x="400" y="20" width="400" height="40" as="geometry" />
        </mxCell>
        
        <!-- Main Module -->
        <mxCell id="main-module" value="common-utils.js" style="rounded=1;whiteSpace=wrap;html=1;fillColor=#dae8fc;strokeColor=#6c8ebf;fontSize=14;fontStyle=1" vertex="1" parent="1">
          <mxGeometry x="500" y="80" width="200" height="60" as="geometry" />
        </mxCell>
        
        <!-- SecurityUtils Class -->
        <mxCell id="security-utils" value="SecurityUtils" style="rounded=0;whiteSpace=wrap;html=1;fillColor=#fff2cc;strokeColor=#d6b656;fontSize=12;fontStyle=1" vertex="1" parent="1">
          <mxGeometry x="100" y="200" width="140" height="40" as="geometry" />
        </mxCell>
        
        <mxCell id="security-methods" value="• validatePath()&#xa;• sanitizeError()&#xa;• calculateFileHash()&#xa;• executeCommand()" style="text;html=1;align=left;verticalAlign=top;resizable=0;points=[];autosize=1;strokeColor=none;fillColor=none;fontSize=11" vertex="1" parent="1">
          <mxGeometry x="100" y="250" width="140" height="70" as="geometry" />
        </mxCell>
        
        <!-- FileOperations Class -->
        <mxCell id="file-ops" value="FileOperations" style="rounded=0;whiteSpace=wrap;html=1;fillColor=#fff2cc;strokeColor=#d6b656;fontSize=12;fontStyle=1" vertex="1" parent="1">
          <mxGeometry x="280" y="200" width="140" height="40" as="geometry" />
        </mxCell>
        
        <mxCell id="file-methods" value="• atomicCopy()&#xa;• copyWithBackup()&#xa;• createDirectorySafe()&#xa;• writeFileSafe()&#xa;• compareFiles()" style="text;html=1;align=left;verticalAlign=top;resizable=0;points=[];autosize=1;strokeColor=none;fillColor=none;fontSize=11" vertex="1" parent="1">
          <mxGeometry x="280" y="250" width="140" height="80" as="geometry" />
        </mxCell>
        
        <!-- VersionUtils Class -->
        <mxCell id="version-utils" value="VersionUtils" style="rounded=0;whiteSpace=wrap;html=1;fillColor=#fff2cc;strokeColor=#d6b656;fontSize=12;fontStyle=1" vertex="1" parent="1">
          <mxGeometry x="460" y="200" width="140" height="40" as="geometry" />
        </mxCell>
        
        <mxCell id="version-methods" value="• compareVersions()&#xa;• incrementVersion()&#xa;• isValidVersion()" style="text;html=1;align=left;verticalAlign=top;resizable=0;points=[];autosize=1;strokeColor=none;fillColor=none;fontSize=11" vertex="1" parent="1">
          <mxGeometry x="460" y="250" width="140" height="50" as="geometry" />
        </mxCell>
        
        <!-- SystemUtils Class -->
        <mxCell id="system-utils" value="SystemUtils" style="rounded=0;whiteSpace=wrap;html=1;fillColor=#fff2cc;strokeColor=#d6b656;fontSize=12;fontStyle=1" vertex="1" parent="1">
          <mxGeometry x="640" y="200" width="140" height="40" as="geometry" />
        </mxCell>
        
        <mxCell id="system-methods" value="• getHomeDir()&#xa;• getPlatformInfo()&#xa;• getEnvVar()&#xa;• formatFileSize()&#xa;• getJSTTimestamp()" style="text;html=1;align=left;verticalAlign=top;resizable=0;points=[];autosize=1;strokeColor=none;fillColor=none;fontSize=11" vertex="1" parent="1">
          <mxGeometry x="640" y="250" width="140" height="80" as="geometry" />
        </mxCell>
        
        <!-- ErrorHandler Class -->
        <mxCell id="error-handler" value="ErrorHandler" style="rounded=0;whiteSpace=wrap;html=1;fillColor=#fff2cc;strokeColor=#d6b656;fontSize=12;fontStyle=1" vertex="1" parent="1">
          <mxGeometry x="820" y="200" width="140" height="40" as="geometry" />
        </mxCell>
        
        <mxCell id="error-methods" value="• handle()&#xa;• logToFile()" style="text;html=1;align=left;verticalAlign=top;resizable=0;points=[];autosize=1;strokeColor=none;fillColor=none;fontSize=11" vertex="1" parent="1">
          <mxGeometry x="820" y="250" width="140" height="40" as="geometry" />
        </mxCell>
        
        <!-- ConfigUtils Class -->
        <mxCell id="config-utils" value="ConfigUtils" style="rounded=0;whiteSpace=wrap;html=1;fillColor=#fff2cc;strokeColor=#d6b656;fontSize=12;fontStyle=1" vertex="1" parent="1">
          <mxGeometry x="1000" y="200" width="140" height="40" as="geometry" />
        </mxCell>
        
        <mxCell id="config-methods" value="• loadConfig()&#xa;• deepMerge()&#xa;• validateConfig()" style="text;html=1;align=left;verticalAlign=top;resizable=0;points=[];autosize=1;strokeColor=none;fillColor=none;fontSize=11" vertex="1" parent="1">
          <mxGeometry x="1000" y="250" width="140" height="50" as="geometry" />
        </mxCell>
        
        <!-- Arrows -->
        <mxCell id="arrow1" style="edgeStyle=orthogonalEdgeStyle;rounded=0;orthogonalLoop=1;jettySize=auto;html=1;exitX=0.5;exitY=1;exitDx=0;exitDy=0;entryX=0.5;entryY=0;entryDx=0;entryDy=0;" edge="1" parent="1" source="main-module" target="security-utils">
          <mxGeometry relative="1" as="geometry" />
        </mxCell>
        
        <mxCell id="arrow2" style="edgeStyle=orthogonalEdgeStyle;rounded=0;orthogonalLoop=1;jettySize=auto;html=1;exitX=0.5;exitY=1;exitDx=0;exitDy=0;entryX=0.5;entryY=0;entryDx=0;entryDy=0;" edge="1" parent="1" source="main-module" target="file-ops">
          <mxGeometry relative="1" as="geometry" />
        </mxCell>
        
        <mxCell id="arrow3" style="edgeStyle=orthogonalEdgeStyle;rounded=0;orthogonalLoop=1;jettySize=auto;html=1;exitX=0.5;exitY=1;exitDx=0;exitDy=0;entryX=0.5;entryY=0;entryDx=0;entryDy=0;" edge="1" parent="1" source="main-module" target="version-utils">
          <mxGeometry relative="1" as="geometry" />
        </mxCell>
        
        <mxCell id="arrow4" style="edgeStyle=orthogonalEdgeStyle;rounded=0;orthogonalLoop=1;jettySize=auto;html=1;exitX=0.5;exitY=1;exitDx=0;exitDy=0;entryX=0.5;entryY=0;entryDx=0;entryDy=0;" edge="1" parent="1" source="main-module" target="system-utils">
          <mxGeometry relative="1" as="geometry" />
        </mxCell>
        
        <mxCell id="arrow5" style="edgeStyle=orthogonalEdgeStyle;rounded=0;orthogonalLoop=1;jettySize=auto;html=1;exitX=0.5;exitY=1;exitDx=0;exitDy=0;entryX=0.5;entryY=0;entryDx=0;entryDy=0;" edge="1" parent="1" source="main-module" target="error-handler">
          <mxGeometry relative="1" as="geometry" />
        </mxCell>
        
        <mxCell id="arrow6" style="edgeStyle=orthogonalEdgeStyle;rounded=0;orthogonalLoop=1;jettySize=auto;html=1;exitX=0.5;exitY=1;exitDx=0;exitDy=0;entryX=0.5;entryY=0;entryDx=0;entryDy=0;" edge="1" parent="1" source="main-module" target="config-utils">
          <mxGeometry relative="1" as="geometry" />
        </mxCell>
        
        <!-- Security Features Box -->
        <mxCell id="security-box" value="セキュリティ機能 (v2.2.1強化)" style="rounded=1;whiteSpace=wrap;html=1;fillColor=#f8cecc;strokeColor=#b85450;fontSize=12;fontStyle=1" vertex="1" parent="1">
          <mxGeometry x="100" y="380" width="320" height="40" as="geometry" />
        </mxCell>
        
        <mxCell id="security-list" value="• ReDoS攻撃対策（正規表現長さ制限）&#xa;• パストラバーサル防止（強化版）&#xa;• コマンドインジェクション対策&#xa;• エラーメッセージサニタイズ&#xa;• Windows予約名チェック" style="text;html=1;align=left;verticalAlign=top;resizable=0;points=[];autosize=1;strokeColor=none;fillColor=none;fontSize=11" vertex="1" parent="1">
          <mxGeometry x="100" y="430" width="320" height="80" as="geometry" />
        </mxCell>
        
        <!-- OS Compatibility Box -->
        <mxCell id="os-box" value="OS互換性機能" style="rounded=1;whiteSpace=wrap;html=1;fillColor=#d5e8d4;strokeColor=#82b366;fontSize=12;fontStyle=1" vertex="1" parent="1">
          <mxGeometry x="460" y="380" width="320" height="40" as="geometry" />
        </mxCell>
        
        <mxCell id="os-list" value="• クロスプラットフォームパス処理&#xa;• os.homedir()によるホームディレクトリ取得&#xa;• プラットフォーム情報取得&#xa;• Windows/macOS/Linux完全対応" style="text;html=1;align=left;verticalAlign=top;resizable=0;points=[];autosize=1;strokeColor=none;fillColor=none;fontSize=11" vertex="1" parent="1">
          <mxGeometry x="460" y="430" width="320" height="70" as="geometry" />
        </mxCell>
        
        <!-- File Safety Box -->
        <mxCell id="file-box" value="ファイル操作安全機能" style="rounded=1;whiteSpace=wrap;html=1;fillColor=#e1d5e7;strokeColor=#9673a6;fontSize=12;fontStyle=1" vertex="1" parent="1">
          <mxGeometry x="820" y="380" width="320" height="40" as="geometry" />
        </mxCell>
        
        <mxCell id="file-list" value="• アトミックファイル操作&#xa;• バックアップ付きコピー&#xa;• ファイルサイズ制限（10MB）&#xa;• ストリーミングハッシュ計算&#xa;• 整合性チェック" style="text;html=1;align=left;verticalAlign=top;resizable=0;points=[];autosize=1;strokeColor=none;fillColor=none;fontSize=11" vertex="1" parent="1">
          <mxGeometry x="820" y="430" width="320" height="80" as="geometry" />
        </mxCell>
        
        <!-- Usage Example -->
        <mxCell id="usage-title" value="使用例" style="text;html=1;align=center;verticalAlign=middle;resizable=0;points=[];autosize=1;strokeColor=none;fillColor=none;fontSize=14;fontStyle=1" vertex="1" parent="1">
          <mxGeometry x="550" y="550" width="100" height="30" as="geometry" />
        </mxCell>
        
        <mxCell id="usage-code" value="const { SecurityUtils, FileOperations, SystemUtils } = require('./lib/common-utils');&#xa;&#xa;// パス検証&#xa;const safePath = SecurityUtils.validatePath(basePath, userInput);&#xa;&#xa;// ホームディレクトリ取得（OS非依存）&#xa;const homeDir = SystemUtils.getHomeDir();&#xa;&#xa;// アトミックファイルコピー&#xa;await FileOperations.atomicCopy(source, target);" style="text;html=1;align=left;verticalAlign=top;resizable=0;points=[];autosize=1;strokeColor=#666666;fillColor=#f5f5f5;fontSize=11;fontFamily=Courier New" vertex="1" parent="1">
          <mxGeometry x="300" y="590" width="600" height="150" as="geometry" />
        </mxCell>
        
      </root>
    </mxGraphModel>
  </diagram>
</mxfile>